<svg xmlns="http://www.w3.org/2000/svg" xmlns:xlink="http://www.w3.org/1999/xlink" width="48" height="48" viewBox="0 0 48 48">
  <defs>
    <clipPath id="clip-path">
      <rect id="Rectangle_113447" data-name="Rectangle 113447" width="34.834" height="39.927" fill="none"/>
    </clipPath>
    <clipPath id="clip-path-2">
      <rect id="Rectangle_113490" data-name="Rectangle 113490" width="6.905" height="6.89" fill="#1a2024"/>
    </clipPath>
    <clipPath id="clip-path-3">
      <rect id="Rectangle_113490-2" data-name="Rectangle 113490" width="4.707" height="4.696" fill="#1a2024"/>
    </clipPath>
  </defs>
  <g id="Limited_Edition" data-name="Limited Edition" transform="translate(2127 2799)">
    <rect id="Rectangle_114172" data-name="Rectangle 114172" width="48" height="48" transform="translate(-2127 -2799)" fill="#fff" opacity="0"/>
    <g id="Group_333638" data-name="Group 333638" transform="translate(-2120 -2797)">
      <g id="Group_332216" data-name="Group 332216" transform="translate(0 4.315)">
        <g id="Group_332215" data-name="Group 332215" transform="translate(0 0)">
          <g id="Group_332185" data-name="Group 332185" clip-path="url(#clip-path)">
            <path id="Path_337524" data-name="Path 337524" d="M17.308.007A17.455,17.455,0,0,1,34.486,13.9a14.078,14.078,0,0,1,.338,3.138c0,.122.067.289-.066.353s-.226-.089-.33-.155a4.786,4.786,0,0,0-1.577-.706c-.407-.084-.5-.32-.532-.668a12.986,12.986,0,0,0-.666-3.162,14.863,14.863,0,0,0-6.713-8.261,14.326,14.326,0,0,0-6.928-2A14.67,14.67,0,0,0,6.21,7.464a14.644,14.644,0,0,0-3.576,7.451c-.065.366-.1.739-.13,1.11a.469.469,0,0,1-.41.473,5.373,5.373,0,0,0-1.751.786c-.081.054-.165.168-.269.1S.021,17.2.02,17.1a14.907,14.907,0,0,1,.812-4.965,17.244,17.244,0,0,1,13-11.76A13.126,13.126,0,0,1,17.308.007" transform="translate(-0.006 0)" fill="#b2b9bf"/>
            <path id="Path_337527" data-name="Path 337527" d="M2.383,37.13c0,2.43-.007,4.861,0,7.291a28.357,28.357,0,0,0,.072,3.354c.036.29-.049.329-.313.226A3.461,3.461,0,0,1,.021,45.02C0,43.3-.016,41.572.025,39.849a3.324,3.324,0,0,1,2.014-3.01c.41-.207.441-.173.344.291" transform="translate(0 -17.955)" fill="#b2b9bf"/>
            <path id="Path_337528" data-name="Path 337528" d="M65.793,42.411c0,.875.014,1.75,0,2.624a3.478,3.478,0,0,1-2.122,2.982c-.259.1-.334.074-.318-.223.17-3.316.036-6.636.073-9.954A6.527,6.527,0,0,0,63.35,37c-.03-.248.047-.286.278-.2a3.492,3.492,0,0,1,2.159,2.956c.021.887,0,1.775,0,2.663h0" transform="translate(-30.976 -17.973)" fill="#b2b9bf"/>
          </g>
        </g>
        <path id="Path_337575" data-name="Path 337575" d="M3.406,15.039A1.345,1.345,0,0,1,2.6,13.984Q1.333,7.94.048,1.9A1.146,1.146,0,0,1,1.028.352,10.375,10.375,0,0,1,2.956,0,2.544,2.544,0,0,1,5.568,2c.45,2,.86,4,1.284,6,.247,1.164.5,2.327.732,3.494a2.622,2.622,0,0,1-2.073,3.221c-.462.111-.927.212-1.39.318Z" transform="matrix(0.978, 0.208, -0.208, 0.978, 3.72, 16.462)" fill="#1a2024"/>
        <path id="Path_337576" data-name="Path 337576" d="M3.406,0A1.345,1.345,0,0,0,2.6,1.054Q1.333,7.1.048,13.139a1.146,1.146,0,0,0,.98,1.547,10.375,10.375,0,0,0,1.927.352,2.544,2.544,0,0,0,2.612-2c.45-2,.86-4,1.284-6,.247-1.164.5-2.327.732-3.494A2.622,2.622,0,0,0,5.511.318C5.048.207,4.584.106,4.12,0Z" transform="matrix(-0.978, 0.208, -0.208, -0.978, 34.063, 31.172)" fill="#1a2024"/>
      </g>
      <g id="Group_332251" data-name="Group 332251" transform="translate(24.453)">
        <g id="Group_332250" data-name="Group 332250" clip-path="url(#clip-path-2)">
          <path id="Path_337633" data-name="Path 337633" d="M3.452,0a.2.2,0,0,1,.193.16c.091.31.176.621.269.93a2.656,2.656,0,0,0,1.88,1.884c.311.094.625.18.938.271.117.034.173.1.173.192s-.056.159-.172.193c-.364.107-.734.2-1.091.321A2.63,2.63,0,0,0,3.918,5.767c-.1.314-.181.631-.272.946-.035.121-.1.179-.2.177s-.155-.059-.189-.176c-.1-.334-.183-.672-.291-1A2.648,2.648,0,0,0,1.1,3.9C.8,3.806.488,3.72.18,3.631.059,3.6,0,3.533,0,3.437s.058-.159.18-.195c.324-.093.65-.179.97-.28A2.666,2.666,0,0,0,3,1.05c.086-.3.169-.593.255-.889A.2.2,0,0,1,3.452,0" transform="translate(0 0)" fill="#1a2024"/>
        </g>
      </g>
      <g id="Group_332252" data-name="Group 332252" transform="translate(29.949 4.541)">
        <g id="Group_332250-2" data-name="Group 332250" transform="translate(0 0)" clip-path="url(#clip-path-3)">
          <path id="Path_337633-2" data-name="Path 337633" d="M2.353,0a.134.134,0,0,1,.132.109c.062.211.12.423.183.634A1.81,1.81,0,0,0,3.95,2.027c.212.064.426.122.639.184.08.023.118.067.118.131s-.038.108-.117.132c-.248.073-.5.134-.744.219A1.793,1.793,0,0,0,2.671,3.931c-.065.214-.123.43-.186.645-.024.082-.07.122-.135.12s-.106-.04-.129-.12c-.066-.228-.125-.458-.2-.684A1.805,1.805,0,0,0,.751,2.657C.542,2.595.332,2.536.123,2.475.04,2.451,0,2.408,0,2.343s.04-.109.123-.133c.221-.064.443-.122.662-.191A1.818,1.818,0,0,0,2.048.716c.059-.2.115-.4.174-.606A.134.134,0,0,1,2.353,0" transform="translate(0 0)" fill="#1a2024"/>
        </g>
      </g>
    </g>
  </g>
</svg>
